<svg width="320" height="592" viewBox="0 0 320 592" fill="none" xmlns="http://www.w3.org/2000/svg">
<path d="M23.7063 189.281C25.4562 190.045 29.726 189.949 29.7324 189.949C29.7387 189.949 28.8161 187.149 28.7333 186.984C27.7916 185.018 24.8326 181.779 22.4146 182.11C22.0156 182.174 21.6348 182.323 21.2969 182.545C20.9591 182.767 20.6718 183.057 20.4539 183.398C20.2359 183.738 20.0922 184.121 20.032 184.52C19.9719 184.92 19.9966 185.328 20.1047 185.717C20.5056 187.391 22.2173 188.632 23.7063 189.281Z" fill="#263238"/>
<path d="M25.1825 201.683C26.9961 201.95 30.8077 200.843 31.1131 200.754C31.7404 202.937 32.5121 205.075 33.423 207.155C33.9511 208.364 34.5175 209.574 35.0965 210.776C34.7529 210.267 34.4602 209.815 34.3838 209.758C32.9648 208.11 29.2487 205.775 27.0088 206.723C26.6418 206.892 26.3143 207.136 26.0478 207.439C25.7812 207.743 25.5814 208.099 25.4614 208.485C25.3414 208.871 25.3039 209.278 25.3512 209.679C25.3985 210.08 25.5297 210.467 25.7361 210.814C26.5634 212.322 28.5487 213.067 30.1523 213.302C31.7558 213.538 35.052 212.666 35.9174 212.418C36.1465 212.876 36.3692 213.341 36.5983 213.799C37.6991 215.994 38.8127 218.183 39.8372 220.366C40.1999 221.136 40.5244 221.906 40.8553 222.675C40.5499 222.217 40.2826 221.842 40.219 221.791C38.7936 220.143 35.0838 217.801 32.8376 218.756C32.4698 218.924 32.1417 219.168 31.8746 219.471C31.6074 219.775 31.4073 220.131 31.2872 220.517C31.1671 220.903 31.1297 221.31 31.1776 221.712C31.2255 222.113 31.3574 222.5 31.5649 222.847C32.3921 224.355 34.3711 225.1 35.981 225.335C37.5909 225.571 40.5626 224.775 41.5871 224.495C41.9052 225.291 42.2234 226.086 42.4907 226.875C42.6625 227.416 42.8661 227.925 43.0061 228.479C43.1461 229.032 43.3052 229.567 43.4579 230.101C43.706 231.145 43.9733 232.214 44.1897 233.232C44.3424 233.945 44.4824 234.619 44.6224 235.307C44.2724 234.537 43.5533 233.048 43.477 232.927C42.3189 231.088 39.0227 228.212 36.6428 228.81C36.2511 228.918 35.8866 229.107 35.5732 229.365C35.2598 229.624 35.0046 229.946 34.8243 230.31C34.6441 230.674 34.5428 231.072 34.5272 231.478C34.5116 231.884 34.582 232.289 34.7338 232.666C35.3192 234.276 37.1646 235.313 38.7172 235.79C40.429 236.312 44.2151 235.835 44.686 235.79C44.9151 236.923 45.1251 238.024 45.3223 239.067C45.9587 242.682 46.3532 245.717 46.595 247.842C46.6395 248.218 46.6713 248.555 46.7095 248.873H39.4108L40.3017 266.207H56.3626L57.2471 248.873H50.4257C50.4766 248.771 50.5211 248.67 50.572 248.561C51.5138 246.608 52.8119 243.808 54.2118 240.372C54.6573 239.29 55.1154 238.126 55.5672 236.923C56.0254 237.018 59.7733 237.782 61.5232 237.387C63.1013 237.025 65.023 236.115 65.7294 234.562C65.9086 234.2 66.0095 233.804 66.0254 233.4C66.0414 232.996 65.972 232.594 65.822 232.218C65.6719 231.843 65.4444 231.504 65.1543 231.222C64.8643 230.941 64.5181 230.724 64.1385 230.585C61.835 229.809 58.3098 232.43 57.018 234.18C56.9417 234.282 56.2417 235.491 55.8154 236.267C55.9999 235.771 56.1781 235.3 56.3626 234.791C56.7317 233.786 57.0689 232.774 57.438 231.686L57.9216 230.07C58.0934 229.535 58.208 228.95 58.3543 228.383C58.6661 227.066 58.9207 225.717 59.1434 224.349C60.0279 224.674 63.165 225.762 64.794 225.622C66.423 225.482 68.4465 224.915 69.3819 223.477C69.6145 223.146 69.7747 222.769 69.8521 222.372C69.9296 221.975 69.9224 221.565 69.8312 221.171C69.7399 220.777 69.5666 220.406 69.3226 220.083C69.0785 219.76 68.7692 219.492 68.4147 219.297C66.2512 218.183 62.3696 220.238 60.8296 221.772C60.7342 221.867 59.7542 223.095 59.2261 223.776C59.3534 222.955 59.487 222.135 59.5952 221.301C59.8942 218.883 60.1233 216.433 60.3588 213.983C60.4351 213.239 60.5115 212.494 60.5942 211.743C60.906 211.864 64.6094 213.239 66.4293 213.111C68.052 212.997 70.0818 212.405 71.0236 210.967C71.2572 210.635 71.418 210.257 71.4956 209.858C71.5732 209.459 71.5658 209.049 71.474 208.653C71.3821 208.257 71.2078 207.885 70.9624 207.561C70.7171 207.238 70.4062 206.969 70.05 206.774C67.8865 205.66 64.0113 207.715 62.4714 209.249C62.3505 209.364 60.9442 211.126 60.6069 211.597C60.7787 209.949 60.9696 208.314 61.2432 206.71C61.5728 204.538 62.0425 202.389 62.6495 200.277C62.7959 200.334 66.652 201.791 68.5228 201.658C70.1391 201.543 72.169 200.951 73.1108 199.513C73.3434 199.182 73.5036 198.805 73.581 198.408C73.6584 198.011 73.6513 197.601 73.56 197.207C73.4688 196.813 73.2955 196.442 73.0514 196.119C72.8074 195.796 72.498 195.528 72.1436 195.332C69.98 194.219 66.0984 196.274 64.5585 197.808C64.4376 197.929 62.9232 199.825 62.6495 200.194C62.6877 200.067 62.7132 199.939 62.7514 199.819C63.4173 197.719 64.2691 195.683 65.2967 193.735C65.8503 192.647 66.4421 191.648 67.0338 190.681C67.7274 191.025 70.9027 192.59 72.5953 192.634C74.288 192.679 76.3051 192.335 77.3933 191.005C77.6601 190.702 77.86 190.345 77.9801 189.959C78.1002 189.573 78.1377 189.166 78.0903 188.765C78.0429 188.363 77.9116 187.976 77.7049 187.629C77.4982 187.282 77.2208 186.982 76.8906 186.748C74.8607 185.399 70.7818 187.016 69.0828 188.371C68.9874 188.447 68.1283 189.3 67.5174 189.93C67.7911 189.497 68.0647 189.052 68.3383 188.657C69.3564 187.124 70.3873 185.788 71.3036 184.604C71.8317 183.936 72.3217 183.331 72.7862 182.797C73.6453 182.797 77.0878 182.676 78.5959 181.97C80.104 181.263 81.7776 179.991 82.1021 178.311C82.1986 177.918 82.2114 177.509 82.1398 177.111C82.0681 176.712 81.9136 176.333 81.6863 175.999C81.4589 175.664 81.1637 175.381 80.8199 175.167C80.4761 174.954 80.0913 174.815 79.6904 174.76C77.2724 174.499 74.3962 177.821 73.5117 179.806C73.4353 179.978 72.5444 182.797 72.589 182.797H72.6399C72.1817 183.319 71.6981 183.879 71.1827 184.502C70.2346 185.667 69.1783 186.99 68.122 188.511C66.9614 190.13 65.8989 191.817 64.9403 193.563C63.8555 195.506 62.9462 197.542 62.2232 199.647C62.2232 199.647 62.2232 199.698 62.2232 199.723C62.2232 199.01 62.2232 197.012 62.185 196.86C61.905 194.703 60.0979 190.706 57.7307 190.261C57.331 190.198 56.9225 190.22 56.5319 190.325C56.1413 190.431 55.7773 190.618 55.4638 190.874C55.1503 191.129 54.8943 191.449 54.7126 191.81C54.5308 192.172 54.4274 192.567 54.4091 192.972C54.2691 194.683 55.5099 196.395 56.719 197.477C58.0871 198.699 61.8796 199.882 62.1787 199.971C61.4995 202.14 60.9639 204.35 60.5751 206.589C60.346 207.862 60.1488 209.211 59.977 210.534C59.977 209.898 59.977 209.364 59.9451 209.262C59.6652 207.105 57.858 203.108 55.4908 202.663C55.0913 202.601 54.6832 202.624 54.293 202.73C53.9027 202.836 53.5392 203.022 53.2259 203.278C52.9127 203.534 52.6567 203.852 52.4746 204.214C52.2926 204.575 52.1885 204.97 52.1692 205.374C52.0292 207.085 53.2701 208.797 54.4854 209.879C55.7008 210.961 58.9397 212.049 59.7797 212.322C59.7161 212.831 59.6461 213.341 59.5888 213.85C59.2961 216.293 59.0161 218.73 58.6661 221.116C58.5452 221.956 58.3925 222.777 58.2398 223.605C58.2398 223.057 58.2398 222.593 58.2398 222.523C57.9598 220.366 56.1526 216.369 53.7855 215.924C53.3856 215.862 52.9771 215.885 52.5866 215.991C52.196 216.097 51.8321 216.283 51.5183 216.539C51.2046 216.795 50.948 217.113 50.7653 217.474C50.5825 217.835 50.4777 218.231 50.4575 218.635C50.3175 220.347 51.5647 222.058 52.7737 223.14C53.9827 224.222 56.7762 225.227 57.7689 225.558C57.5907 226.398 57.4126 227.238 57.2026 228.046C57.0499 228.593 56.9353 229.128 56.7508 229.669C56.5662 230.21 56.4008 230.744 56.2353 231.272C55.8663 232.278 55.4972 233.315 55.1154 234.288C54.8545 234.963 54.5936 235.606 54.3327 236.248C54.4664 235.415 54.6891 233.779 54.6891 233.639C54.665 231.726 54.1502 229.85 53.1937 228.192C53.2011 227.979 53.1861 227.766 53.1492 227.556C53.0993 227.155 52.9654 226.769 52.7563 226.423C52.5472 226.077 52.2675 225.779 51.9354 225.548C51.6034 225.318 51.2265 225.16 50.8293 225.085C50.4321 225.01 50.0236 225.019 49.6303 225.113C47.2758 225.749 45.8123 229.872 45.6723 232.042C45.6723 232.17 45.7487 233.569 45.8187 234.448C45.6978 233.938 45.5896 233.436 45.4623 232.914C45.2141 231.87 44.9405 230.84 44.6415 229.732C44.4824 229.198 44.3233 228.663 44.1578 228.122C43.9924 227.582 43.776 227.028 43.5915 226.474C43.1206 225.202 42.5925 223.929 42.0261 222.656C42.9361 222.44 46.1559 221.619 47.454 220.627C48.7521 219.634 50.133 218.037 50.133 216.319C50.1432 215.915 50.0683 215.513 49.9133 215.14C49.7583 214.767 49.5266 214.43 49.2332 214.153C48.9398 213.875 48.5912 213.662 48.2102 213.527C47.8291 213.393 47.4241 213.34 47.0213 213.372C44.5969 213.633 42.497 217.489 42.058 219.621C42.058 219.755 41.8862 221.314 41.8289 222.166C41.4789 221.409 41.1416 220.652 40.7662 219.901C39.6845 217.718 38.52 215.549 37.3682 213.379L36.3246 211.381C36.6555 211.304 40.5053 210.413 41.9561 209.3C43.2288 208.314 44.6096 206.697 44.5969 204.979C44.608 204.575 44.5339 204.172 44.3793 203.799C44.2247 203.425 43.9931 203.087 43.6996 202.809C43.406 202.53 43.0572 202.317 42.6757 202.182C42.2942 202.047 41.8886 201.994 41.4853 202.027C39.0609 202.288 36.961 206.144 36.5219 208.275C36.5219 208.434 36.2865 210.687 36.261 211.26C35.5038 209.79 34.7529 208.32 34.0784 206.844C33.1455 204.854 32.3441 202.804 31.6794 200.709C31.8258 200.671 35.8538 199.761 37.3364 198.622C38.6091 197.63 39.9899 196.013 39.9772 194.295C39.9873 193.891 39.9124 193.489 39.7575 193.116C39.6026 192.742 39.3709 192.406 39.0776 192.127C38.7844 191.849 38.4359 191.635 38.0549 191.5C37.6738 191.365 37.2686 191.311 36.8655 191.343C34.4475 191.61 32.3476 195.466 31.9085 197.591C31.8703 197.763 31.654 200.181 31.6476 200.62C31.6094 200.499 31.5585 200.379 31.5204 200.258C30.9195 198.139 30.5085 195.971 30.2922 193.78C30.1523 192.571 30.095 191.406 30.0568 190.274C30.8268 190.178 34.3266 189.714 35.7838 188.836C37.241 187.957 38.7109 186.538 38.889 184.827C38.9436 184.427 38.9137 184.021 38.8015 183.634C38.6893 183.247 38.4972 182.888 38.2375 182.58C37.9779 182.271 37.6565 182.021 37.2942 181.845C36.9318 181.668 36.5365 181.57 36.1337 181.556C33.6966 181.556 31.1895 185.151 30.515 187.219C30.4768 187.334 30.235 188.492 30.0695 189.383C30.0695 188.867 30.0695 188.339 30.0695 187.849C30.0695 186.01 30.1904 184.324 30.305 182.835C30.3813 181.982 30.4641 181.219 30.5468 180.506C31.2531 180.022 34.0657 178.031 34.9311 176.612C35.7965 175.193 36.471 173.226 35.8347 171.623C35.6988 171.242 35.4845 170.894 35.2055 170.602C34.9265 170.31 34.5892 170.079 34.2154 169.925C33.8415 169.772 33.4396 169.698 33.0356 169.71C32.6316 169.722 32.2346 169.819 31.8703 169.994C29.7068 171.114 29.1405 175.466 29.4968 177.63C29.4968 177.814 30.3432 180.659 30.3813 180.633H30.4259C30.3304 181.314 30.235 182.052 30.1523 182.86C29.9995 184.356 29.8468 186.042 29.8023 187.887C29.7364 189.878 29.7853 191.871 29.9486 193.856C30.1048 196.068 30.4583 198.261 31.0049 200.41C31.0077 200.436 31.0077 200.461 31.0049 200.487C30.6231 199.882 29.4968 198.234 29.395 198.12C27.976 196.478 24.2599 194.136 22.02 195.084C21.6527 195.254 21.3252 195.499 21.0586 195.803C20.792 196.107 20.5922 196.464 20.4723 196.85C20.3523 197.237 20.3148 197.644 20.3622 198.045C20.4096 198.447 20.5408 198.834 20.7473 199.182C21.5936 200.678 23.579 201.422 25.1825 201.683ZM49.3248 233.563C50.5975 234.912 53.7791 236.49 54.1736 236.694C53.7409 237.763 53.3082 238.8 52.901 239.767C51.4374 243.133 50.0948 245.882 49.1276 247.791C48.9303 248.173 48.7585 248.517 48.5931 248.829H48.4149C48.364 248.46 48.3131 248.052 48.2494 247.594C47.9567 245.45 47.4922 242.395 46.7668 238.756C46.5441 237.61 46.2768 236.382 45.9968 235.128C47.1355 234.671 48.2467 234.149 49.3248 233.563Z" fill="#263238"/>
<path d="M66.9322 190.229C66.9704 190.229 67.7085 187.385 67.734 187.2C68.033 185.049 67.3458 180.71 65.1886 179.653C64.8198 179.487 64.42 179.4 64.0153 179.399C63.6107 179.397 63.2103 179.481 62.8403 179.645C62.4704 179.809 62.1392 180.05 61.8684 180.35C61.5976 180.651 61.3933 181.005 61.2689 181.39C60.6771 183.007 61.4216 184.986 62.3061 186.347C63.3115 187.945 66.9258 190.229 66.9322 190.229Z" fill="#263238"/>
<path d="M84.6155 182.275C84.2151 182.342 83.8054 182.33 83.4098 182.238C83.0143 182.146 82.6408 181.977 82.3108 181.741C81.9808 181.504 81.7008 181.205 81.487 180.86C81.2731 180.515 81.1297 180.131 81.0648 179.73L76.3369 151.534L82.4075 150.51L87.1354 178.712C87.2065 179.111 87.1976 179.521 87.1091 179.917C87.0206 180.314 86.8544 180.688 86.62 181.02C86.3856 181.351 86.0877 181.633 85.7436 181.848C85.3995 182.064 85.0161 182.209 84.6155 182.275Z" fill="white" stroke="#263238" stroke-linecap="round" stroke-linejoin="round"/>
<path d="M84.5394 163.255L78.2397 162.892L81.065 179.749C81.1182 180.159 81.2537 180.555 81.4634 180.912C81.673 181.27 81.9526 181.581 82.2853 181.827C82.6179 182.074 82.997 182.251 83.3996 182.348C83.8023 182.445 84.2204 182.459 84.6288 182.391C85.0372 182.322 85.4276 182.172 85.7767 181.949C86.1258 181.726 86.4263 181.435 86.6603 181.094C86.8943 180.752 87.057 180.367 87.1387 179.961C87.2204 179.555 87.2193 179.136 87.1356 178.731L84.5394 163.255Z" fill="#FF2156" stroke="#263238" stroke-linecap="round" stroke-linejoin="round"/>
<path d="M83.3318 149.457L75.1172 150.836L76.077 156.553L84.2915 155.174L83.3318 149.457Z" fill="white" stroke="#263238" stroke-linecap="round" stroke-linejoin="round"/>
<path d="M95.1661 213.372C95.1661 213.372 75.1663 192.151 71.622 188.867C68.0776 185.584 66.945 183.045 67.0722 181.562C67.1995 180.08 71.6474 175.568 73.9382 175.759C76.229 175.95 89.0065 184.069 92.3217 188.32C94.8629 191.573 96.7651 195.279 97.9278 199.24C98.6659 201.74 98.6341 202.148 98.6341 202.148L103.757 207.461L95.1661 213.372Z" fill="#999999" stroke="#263238" stroke-linecap="round" stroke-linejoin="round"/>
<path d="M68.001 184.388C68.001 184.388 66.1302 181.257 67.1165 179.634C68.1028 178.012 78.3413 164.999 80.0467 164.961C81.7521 164.922 79.6776 169.415 77.2469 173.029C74.8161 176.644 72.1562 180.665 72.0862 181.301C72.0162 181.938 71.9462 182.994 71.9462 182.994" fill="#999999"/>
<path d="M68.001 184.388C68.001 184.388 66.1302 181.257 67.1165 179.634C68.1028 178.012 78.3413 164.999 80.0467 164.961C81.7521 164.922 79.6776 169.415 77.2469 173.029C74.8161 176.644 72.1562 180.665 72.0862 181.301C72.0162 181.938 71.9462 182.994 71.9462 182.994" stroke="#263238" stroke-linecap="round" stroke-linejoin="round"/>
<path d="M71.9079 185.629C71.9079 185.629 71.7616 180.869 73.0342 178.667C74.3069 176.465 82.2674 165.591 83.1455 164.852C84.0236 164.114 86.4162 164.712 84.7427 168.511C83.0691 172.31 78.513 181.295 78.4239 182.377C78.3349 183.459 77.3676 190.159 77.3676 190.159" fill="#999999"/>
<path d="M71.9079 185.629C71.9079 185.629 71.7616 180.869 73.0342 178.667C74.3069 176.465 82.2674 165.591 83.1455 164.852C84.0236 164.114 86.4162 164.712 84.7427 168.511C83.0691 172.31 78.513 181.295 78.4239 182.377C78.3349 183.459 77.3676 190.159 77.3676 190.159" stroke="#263238" stroke-linecap="round" stroke-linejoin="round"/>
<path d="M77.4951 188.677C77.4951 188.677 78.2333 181.41 78.6532 181.308C79.0732 181.206 86.2892 166.469 86.2892 166.469C86.2892 166.469 88.7708 164.369 88.02 170.14C87.2691 175.912 83.8584 183.643 83.8584 183.643L83.4321 193.653" fill="#999999"/>
<path d="M77.4951 188.677C77.4951 188.677 78.2333 181.41 78.6532 181.308C79.0732 181.206 86.2892 166.469 86.2892 166.469C86.2892 166.469 88.7708 164.369 88.02 170.14C87.2691 175.912 83.8584 183.643 83.8584 183.643L83.4321 193.653" stroke="#263238" stroke-linecap="round" stroke-linejoin="round"/>
<path d="M83.604 190.274C83.604 190.274 85.7293 181.085 86.3339 180.321C86.9384 179.558 88.6628 171.96 89.7509 171.916C90.8391 171.871 91.3545 173.825 90.4254 176.86C89.4964 179.895 88.3892 183.344 88.3892 183.344L89.0255 190.051" fill="#999999"/>
<path d="M83.604 190.274C83.604 190.274 85.7293 181.085 86.3339 180.321C86.9384 179.558 88.6628 171.96 89.7509 171.916C90.8391 171.871 91.3545 173.825 90.4254 176.86C89.4964 179.895 88.3892 183.344 88.3892 183.344L89.0255 190.051" stroke="#263238" stroke-linecap="round" stroke-linejoin="round"/>
<path d="M142.872 264.279C147.58 263.388 164.469 243.916 164.469 243.916L162.999 266.493H270.837C269.52 255.555 262.323 161.932 261.598 159.997C260.828 157.942 216.049 138.967 216.049 138.967L195.776 139.737C195.776 139.737 170.399 156.415 163.699 160.264C156.998 164.114 154.72 165.654 154.72 167.194C154.72 168.734 139.932 228.504 139.932 228.504L103.222 202.523L90.0945 214.817L137.991 264.132C137.991 264.132 138.163 265.176 142.872 264.279Z" fill="#FF2156" stroke="#263238" stroke-linecap="round" stroke-linejoin="round"/>
<path d="M164.52 234.575L164.73 190.796" stroke="#263238" stroke-linecap="round" stroke-linejoin="round"/>
<path d="M164.469 243.916L164.5 238.45" stroke="#263238" stroke-linecap="round" stroke-linejoin="round"/>
<path d="M164.214 201.575L159.34 185.667" stroke="#263238" stroke-linecap="round" stroke-linejoin="round"/>
<path d="M139.931 228.504C141.878 232.064 143.01 236.01 143.247 240.06" stroke="#263238" stroke-linecap="round" stroke-linejoin="round"/>
<path d="M143.247 242.809C143.247 242.809 143.132 244.171 143.132 246.92" stroke="#263238" stroke-linecap="round" stroke-linejoin="round"/>
<path d="M190.59 149.052L184.437 171.324L192.289 176.414L184.017 186.411L194.834 231.59L221.56 184.929L213.498 175.594L225.378 172.622L222.616 145.05C220.033 137.548 216.45 136.141 212.651 137.624C208.477 139.227 193.345 139.087 190.59 149.052Z" fill="#FF2156" stroke="#263238" stroke-linecap="round" stroke-linejoin="round"/>
<path d="M192.499 151.814C192.499 151.814 197.163 182.593 197.163 194.047C197.163 205.501 196.953 207.836 196.953 207.836C196.953 207.836 209.47 174.957 213.071 158.839C215.197 148.814 214.98 138.433 212.435 128.505C212.435 128.505 203.106 148.231 192.499 151.814Z" fill="white" stroke="#263238" stroke-linecap="round" stroke-linejoin="round"/>
<path d="M212.435 128.505C212.435 128.505 203.106 148.231 192.499 151.839C192.499 151.839 192.741 153.424 193.135 155.995C195.833 155.734 202.266 154.964 206.237 153.373C209.801 151.948 212.371 140.646 213.612 133.838C213.323 132.039 212.929 130.259 212.435 128.505Z" fill="#263238" stroke="#263238" stroke-linecap="round" stroke-linejoin="round"/>
<path d="M210.946 166.933C204.118 169.822 198.404 168.982 194.713 167.69C195.916 177.013 197.163 188.097 197.163 194.022C197.163 205.476 196.953 207.811 196.953 207.811C196.953 207.811 206.033 183.968 210.946 166.933Z" fill="#263238" stroke="#263238" stroke-linecap="round" stroke-linejoin="round"/>
<path d="M165.62 112.311C165.62 112.311 160.529 115.13 157.348 105.795C154.166 96.4598 164.036 78.8717 174.249 75.1492C184.462 71.4267 196.972 71.2739 206.485 79.1962C215.998 87.1185 215.292 106.501 215.292 106.501C215.292 106.501 224.455 105.973 229.736 117.242C235.018 128.512 225.155 138.031 218.461 137.853C211.767 137.675 208.279 131.49 207.541 126.055C206.803 120.621 194.509 107.029 188.343 105.445C182.177 103.86 177.774 109.492 172.842 110.535C167.911 111.579 165.62 112.311 165.62 112.311Z" fill="#263238"/>
<path d="M178.773 89.6893C178.773 89.6893 185.137 93.8318 196.724 95.728C208.312 97.6243 214.847 100.392 218.818 104" stroke="#616161" stroke-linecap="round" stroke-linejoin="round"/>
<path d="M181.363 82.9824C181.363 82.9824 191.373 88.1621 202.763 87.6466C214.153 87.1312 221.407 95.9189 221.407 95.9189" stroke="#616161" stroke-linecap="round" stroke-linejoin="round"/>
<path d="M185.855 76.25C191.273 78.2406 196.991 79.2929 202.763 79.3617C208.224 79.3746 213.474 81.4759 217.436 85.235" stroke="#616161" stroke-linecap="round" stroke-linejoin="round"/>
<path d="M172.047 91.0956C172.047 91.0956 170.183 92.6164 163.775 99.2087C157.367 105.801 159.321 111.114 159.321 111.114" stroke="#616161" stroke-linecap="round" stroke-linejoin="round"/>
<path d="M172.047 87.1439C172.047 87.1439 165.83 90.9619 159.957 95.0853C154.084 99.2087 154.262 104.579 154.262 104.579" stroke="#616161" stroke-linecap="round" stroke-linejoin="round"/>
<path d="M174.459 79.7053C170.646 81.1022 167.133 83.2097 164.106 85.9159C158.754 90.5801 155.834 93.6854 155.834 93.6854" stroke="#616161" stroke-linecap="round" stroke-linejoin="round"/>
<path d="M167.733 77.809C167.733 77.809 171.354 75.0473 174.981 73.991C177.292 73.409 179.734 73.6521 181.885 74.6783C181.885 74.6783 174.287 84.8595 174.809 93.8381" stroke="#616161" stroke-linecap="round" stroke-linejoin="round"/>
<path d="M165.62 112.311C165.62 112.311 160.529 115.13 157.348 105.795C154.166 96.4598 164.036 78.8717 174.249 75.1492C184.462 71.4267 196.972 71.2739 206.485 79.1962C215.998 87.1185 215.292 106.501 215.292 106.501C215.292 106.501 224.455 105.973 229.736 117.242C235.018 128.512 225.155 138.031 218.461 137.853C211.767 137.675 208.279 131.49 207.541 126.055C206.803 120.621 194.509 107.029 188.343 105.445C182.177 103.86 177.774 109.492 172.842 110.535C167.911 111.579 165.62 112.311 165.62 112.311Z" stroke="#263238" stroke-linecap="round" stroke-linejoin="round"/>
<path d="M164.386 110.726C164.386 110.726 169.139 125.699 171.43 132.743C173.721 139.787 180.065 149.479 185.875 152.298C191.684 155.117 201.904 151.419 203.316 150.185C204.729 148.951 211.945 135.919 213.179 133.1C214.414 130.281 213.529 123.058 213.529 123.058C213.529 123.058 216.876 118.305 216.711 113.902C216.546 109.498 214.064 107.379 212.658 108.264C211.775 108.827 210.999 109.542 210.367 110.376C210.367 110.376 209.132 108.086 204.379 105.286C199.626 102.486 196.024 105.661 188.273 103.377C183.939 102.141 179.723 100.522 175.674 98.5406C175.674 98.5406 170.552 108.264 164.386 110.726Z" fill="white" stroke="#263238" stroke-linecap="round" stroke-linejoin="round"/>
<path d="M215.133 112.387C215.133 112.387 214.955 110.065 213.345 111.496C211.735 112.928 213.166 115.244 213.166 115.244C213.166 115.244 215.667 114.71 214.439 116.676" stroke="#263238" stroke-linecap="round" stroke-linejoin="round"/>
<path d="M171.748 122.18V125.324C172.846 125.733 174.026 125.874 175.19 125.737C176.354 125.6 177.469 125.188 178.442 124.535" stroke="#263238" stroke-linecap="round" stroke-linejoin="round"/>
<path d="M189.489 118.903L189.616 122.575C190.974 122.762 192.357 122.659 193.673 122.274C194.989 121.889 196.208 121.231 197.252 120.341" stroke="#263238" stroke-linecap="round" stroke-linejoin="round"/>
<path d="M170.177 118.769C170.177 118.769 172.932 116.803 179.359 118.509" stroke="#263238" stroke-width="2" stroke-linecap="round" stroke-linejoin="round"/>
<path d="M184.608 117.325C184.608 117.325 187.23 114.309 194.968 113.393" stroke="#263238" stroke-width="2" stroke-linecap="round" stroke-linejoin="round"/>
<path d="M187.459 128.34C182.884 127.284 183.234 127.112 180.065 129.753C176.896 132.393 171.258 132.043 171.258 132.043H171.214C171.29 132.272 171.36 132.501 171.43 132.718C173.721 139.768 180.065 149.453 185.875 152.272C191.684 155.091 201.904 151.394 203.316 150.16C204.26 149.018 205.095 147.791 205.811 146.494C205.942 146.139 206.051 145.775 206.135 145.406C206.663 142.937 207.72 137.478 209.832 133.78C211.945 130.083 213.529 123.033 213.529 123.033C213.529 123.033 208.439 136.396 206.307 135.893C204.175 135.39 204.016 131.312 204.016 129.021C204.016 126.73 208.776 121.448 210.539 116.161C212.301 110.873 210.361 110.351 210.361 110.351C209.304 120.564 204.194 126.558 204.194 126.558C196.972 130.459 192.034 129.403 187.459 128.34Z" fill="#999999" stroke="#263238" stroke-linecap="round" stroke-linejoin="round"/>
<path d="M162.273 117.242C160.899 117.166 166.498 127.462 168.083 129.046C169.667 130.631 175.661 131.337 178.652 129.931C181.643 128.524 180.415 123.765 182.884 123.567C185.353 123.37 186.759 127.793 189.05 128.658C191.34 129.523 199.085 127.774 203.138 126.017C207.191 124.261 207.363 119.654 207.363 119.654L205.779 110.052C205.779 110.052 186.581 118.655 162.273 117.242Z" stroke="#263238" stroke-linecap="round" stroke-linejoin="round"/>
<path d="M162.273 117.242C162.273 117.242 184.29 119.533 212.295 107.379" stroke="#263238" stroke-width="3" stroke-linecap="round" stroke-linejoin="round"/>
<path d="M200.847 112.489L203.138 122.708" stroke="#263238" stroke-linecap="round" stroke-linejoin="round"/>
<path d="M176.05 228.969L166.778 260.652L166.937 263.611L169.031 261.612L178.48 229.681C178.53 229.513 178.544 229.336 178.521 229.162C178.499 228.988 178.441 228.82 178.351 228.67C178.261 228.519 178.14 228.389 177.997 228.287C177.854 228.185 177.691 228.114 177.52 228.078C177.208 228.016 176.884 228.073 176.611 228.238C176.339 228.403 176.139 228.663 176.05 228.969Z" fill="white" stroke="#263238" stroke-linecap="round" stroke-linejoin="round"/>
<path d="M209.062 248.969C209.062 248.969 193.899 244.998 190.52 243.324C187.141 241.651 179.499 237.394 178.08 239.64C176.661 241.886 164.806 253.226 165.461 254.613C166.117 256 173.256 262.3 174.853 262.771C176.451 263.241 179.352 265.144 183.024 263.859C186.696 262.573 188.305 261.95 188.305 261.95C188.305 261.95 194.866 263.687 196.686 263.731C198.506 263.776 204.245 261.619 204.245 261.619L208.579 261.256L209.062 248.969Z" fill="#999999" stroke="#263238" stroke-linecap="round" stroke-linejoin="round"/>
<path d="M168.356 257.406L180.701 244.705" stroke="#263238" stroke-linecap="round" stroke-linejoin="round"/>
<path d="M171.245 260.658L182.419 249.522" stroke="#263238" stroke-linecap="round" stroke-linejoin="round"/>
<path d="M176.196 263.273L185.257 255.052" stroke="#263238" stroke-linecap="round" stroke-linejoin="round"/>
<path d="M247.516 169.498C247.516 169.498 236.431 183.115 236.329 187.989C236.227 192.864 245.747 237.986 245.747 237.986L205.302 245.055L206.415 264.33C206.415 264.33 270.589 263.941 273.16 263.744C275.73 263.547 281.101 264.431 281.655 262.389C282.208 260.346 263.468 163.332 262.985 162.04C262.465 160.908 261.586 159.98 260.486 159.398C259.385 158.816 258.123 158.613 256.895 158.82" fill="#FF2156"/>
<path d="M247.516 169.498C247.516 169.498 236.431 183.115 236.329 187.989C236.227 192.864 245.747 237.986 245.747 237.986L205.302 245.055L206.415 264.33C206.415 264.33 270.589 263.941 273.16 263.744C275.73 263.547 281.101 264.431 281.655 262.389C282.208 260.346 263.468 163.332 262.985 162.04C262.465 160.908 261.586 159.98 260.486 159.398C259.385 158.816 258.123 158.613 256.895 158.82" stroke="#263238" stroke-linecap="round" stroke-linejoin="round"/>
<path d="M245.747 237.986L260.942 235.758" stroke="#263238" stroke-linecap="round" stroke-linejoin="round"/>
<path d="M246.778 238.011L257.926 232.87" stroke="#263238" stroke-linecap="round" stroke-linejoin="round"/>
<path d="M263.405 235.943C263.405 235.943 267.967 235.256 270.252 235.485" stroke="#263238" stroke-linecap="round" stroke-linejoin="round"/>
<path d="M234 192.259H215.782V219.068H234V192.259Z" fill="white" stroke="#263238" stroke-linecap="round" stroke-linejoin="round"/>
<path d="M226.848 186.271H222.941V195.899H226.848V186.271Z" fill="#263238" stroke="#263238" stroke-linecap="round" stroke-linejoin="round"/>
<path d="M22.981 266.436H300" stroke="#263238" stroke-linecap="round" stroke-linejoin="round"/>
<path d="M73.2444 233.175H79.404V261.772C79.404 262.176 79.3244 262.576 79.1696 262.95C79.0148 263.324 78.788 263.663 78.502 263.949C78.216 264.235 77.8765 264.462 77.5028 264.617C77.1291 264.772 76.7287 264.851 76.3242 264.851C75.5074 264.851 74.724 264.527 74.1464 263.949C73.5689 263.372 73.2444 262.588 73.2444 261.772V233.175Z" fill="white" stroke="#263238" stroke-linecap="round" stroke-linejoin="round"/>
<path d="M73.2446 244.858V261.772C73.2257 262.187 73.2913 262.603 73.4374 262.992C73.5835 263.382 73.807 263.738 74.0946 264.039C74.3821 264.34 74.7277 264.58 75.1104 264.743C75.4931 264.907 75.9051 264.991 76.3213 264.991C76.7375 264.991 77.1494 264.907 77.5321 264.743C77.9149 264.58 78.2604 264.34 78.548 264.039C78.8355 263.738 79.0591 263.382 79.2052 262.992C79.3513 262.603 79.4168 262.187 79.3979 261.772V244.858H73.2446Z" fill="#FF2156" stroke="#263238" stroke-linecap="round" stroke-linejoin="round"/>
<path d="M80.486 232.271H72.1565V238.062H80.486V232.271Z" fill="white" stroke="#263238" stroke-linecap="round" stroke-linejoin="round"/>
<path d="M88.3127 264.851C87.4959 264.851 86.7126 264.527 86.135 263.949C85.5574 263.372 85.2329 262.588 85.2329 261.772V233.175H91.3862V261.772C91.3862 262.587 91.0626 263.37 90.4864 263.947C89.9102 264.524 89.1285 264.85 88.3127 264.851Z" fill="white" stroke="#263238" stroke-linecap="round" stroke-linejoin="round"/>
<path d="M85.2139 244.858V261.772C85.195 262.187 85.2605 262.603 85.4066 262.992C85.5527 263.382 85.7763 263.738 86.0638 264.039C86.3514 264.34 86.6969 264.58 87.0797 264.743C87.4624 264.907 87.8743 264.991 88.2905 264.991C88.7067 264.991 89.1187 264.907 89.5014 264.743C89.8841 264.58 90.2297 264.34 90.5172 264.039C90.8048 263.738 91.0283 263.382 91.1744 262.992C91.3205 262.603 91.3861 262.187 91.3672 261.772V244.858H85.2139Z" fill="#FF2156" stroke="#263238" stroke-linecap="round" stroke-linejoin="round"/>
<path d="M92.455 232.271H84.1255V238.062H92.455V232.271Z" fill="white" stroke="#263238" stroke-linecap="round" stroke-linejoin="round"/>
<path d="M100.263 264.851C99.4472 264.85 98.6655 264.524 98.0893 263.947C97.5131 263.37 97.1895 262.587 97.1895 261.772V233.175H103.343V261.772C103.343 262.588 103.018 263.372 102.441 263.949C101.863 264.527 101.08 264.851 100.263 264.851Z" fill="white" stroke="#263238" stroke-linecap="round" stroke-linejoin="round"/>
<path d="M97.2214 244.858V261.772C97.2214 262.587 97.545 263.37 98.1212 263.947C98.6974 264.524 99.4792 264.85 100.295 264.851C101.112 264.851 101.895 264.527 102.473 263.949C103.05 263.372 103.375 262.588 103.375 261.772V244.858H97.2214Z" fill="#FF2156" stroke="#263238" stroke-linecap="round" stroke-linejoin="round"/>
<path d="M104.431 232.271H96.1013V238.062H104.431V232.271Z" fill="white" stroke="#263238" stroke-linecap="round" stroke-linejoin="round"/>
<path d="M112.239 264.851C111.422 264.851 110.638 264.527 110.061 263.949C109.483 263.372 109.159 262.588 109.159 261.772V233.175H115.312V261.772C115.312 262.587 114.988 263.37 114.412 263.947C113.836 264.524 113.054 264.85 112.239 264.851Z" fill="white" stroke="#263238" stroke-linecap="round" stroke-linejoin="round"/>
<path d="M109.159 244.858V261.772C109.14 262.187 109.206 262.603 109.352 262.992C109.498 263.382 109.721 263.738 110.009 264.039C110.296 264.34 110.642 264.58 111.025 264.743C111.407 264.907 111.819 264.991 112.236 264.991C112.652 264.991 113.064 264.907 113.446 264.743C113.829 264.58 114.175 264.34 114.462 264.039C114.75 263.738 114.973 263.382 115.12 262.992C115.266 262.603 115.331 262.187 115.312 261.772V244.858H109.159Z" fill="#FF2156" stroke="#263238" stroke-linecap="round" stroke-linejoin="round"/>
<path d="M116.4 232.271H108.071V238.062H116.4V232.271Z" fill="white" stroke="#263238" stroke-linecap="round" stroke-linejoin="round"/>
<path d="M121.605 241.186H67.9883V243.006H121.605V262.007H65.3857V266.436H125.251V265.392V262.007V243.006V241.186H121.605Z" fill="white" stroke="#263238" stroke-linecap="round" stroke-linejoin="round"/>
<path d="M136.158 266.436H202.527V264.088C202.527 264.088 191.856 264.349 184.303 262.815C179.816 261.955 175.266 261.466 170.698 261.352C167.65 261.237 164.399 261.733 162.095 263.731C159.811 262.153 157.087 261.772 154.376 261.772C148.389 261.772 139.276 263.076 132.773 264.113C128.985 264.734 125.157 265.083 121.319 265.157V266.461L136.158 266.436Z" fill="#263238" stroke="#263238" stroke-linecap="round" stroke-linejoin="round"/>
<path d="M252.714 136.994L251.633 135.944C251.572 135.879 251.508 135.818 251.442 135.759C250.919 135.298 250.248 135.041 249.551 135.035C248.854 135.03 248.178 135.276 247.649 135.73C247.12 136.183 246.772 136.813 246.67 137.502C246.569 138.192 246.72 138.895 247.096 139.482C247.282 139.755 247.509 139.998 247.77 140.201L248.731 141.219L249.164 140.761C249.28 140.767 249.397 140.767 249.514 140.761C250.281 140.761 251.018 140.456 251.561 139.913C252.104 139.37 252.409 138.634 252.409 137.866C252.409 137.682 252.39 137.498 252.352 137.318L252.714 136.994Z" fill="#5E5E5E" stroke="#263238" stroke-linecap="round" stroke-linejoin="round"/>
<path d="M250.78 142.072C252.379 142.072 253.675 140.776 253.675 139.176C253.675 137.577 252.379 136.281 250.78 136.281C249.181 136.281 247.885 137.577 247.885 139.176C247.885 140.776 249.181 142.072 250.78 142.072Z" fill="#263238" stroke="#263238" stroke-linecap="round" stroke-linejoin="round"/>
<path d="M256.176 139.514L254.725 138.101L254.464 137.853C253.764 137.23 252.861 136.881 251.923 136.873C250.985 136.865 250.076 137.196 249.365 137.807C248.653 138.418 248.187 139.266 248.053 140.194C247.919 141.122 248.126 142.067 248.635 142.854L248.667 142.893C248.912 143.261 249.218 143.586 249.571 143.853L250.843 145.222L251.423 144.585C251.579 144.606 251.736 144.616 251.893 144.617C252.465 144.619 253.031 144.494 253.549 144.252C254.067 144.009 254.525 143.655 254.89 143.215C255.255 142.774 255.518 142.258 255.66 141.704C255.802 141.15 255.819 140.572 255.711 140.01L256.176 139.514Z" fill="#5E5E5E" stroke="#263238" stroke-linecap="round" stroke-linejoin="round"/>
<path d="M253.58 146.322C255.724 146.322 257.461 144.585 257.461 142.441C257.461 140.297 255.724 138.559 253.58 138.559C251.436 138.559 249.698 140.297 249.698 142.441C249.698 144.585 251.436 146.322 253.58 146.322Z" fill="#263238" stroke="#263238" stroke-linecap="round" stroke-linejoin="round"/>
<path d="M263.984 136.994L262.902 135.944C262.845 135.876 262.781 135.814 262.711 135.759C262.295 135.388 261.781 135.144 261.229 135.059C260.678 134.974 260.114 135.051 259.606 135.28C259.097 135.509 258.666 135.88 258.364 136.349C258.063 136.819 257.904 137.365 257.907 137.923C257.908 138.476 258.067 139.016 258.365 139.482C258.549 139.757 258.777 140 259.039 140.201L260 141.219L260.427 140.761C260.545 140.767 260.664 140.767 260.783 140.761C261.55 140.759 262.285 140.453 262.826 139.911C263.368 139.368 263.672 138.632 263.672 137.866C263.671 137.682 263.654 137.499 263.621 137.318L263.984 136.994Z" fill="#5E5E5E" stroke="#263238" stroke-linecap="round" stroke-linejoin="round"/>
<path d="M262.049 142.072C263.648 142.072 264.944 140.776 264.944 139.176C264.944 137.577 263.648 136.281 262.049 136.281C260.45 136.281 259.154 137.577 259.154 139.176C259.154 140.776 260.45 142.072 262.049 142.072Z" fill="#263238" stroke="#263238" stroke-linecap="round" stroke-linejoin="round"/>
<path d="M267.445 139.514L265.995 138.101L265.74 137.853C265.039 137.23 264.137 136.881 263.199 136.873C262.261 136.865 261.352 137.196 260.641 137.807C259.929 138.418 259.463 139.266 259.329 140.194C259.195 141.122 259.402 142.067 259.911 142.854L259.943 142.893C260.19 143.262 260.498 143.587 260.853 143.853L262.126 145.222L262.698 144.585C262.857 144.606 263.016 144.616 263.176 144.617C263.748 144.619 264.313 144.494 264.831 144.252C265.349 144.009 265.807 143.655 266.172 143.215C266.537 142.774 266.8 142.258 266.942 141.704C267.084 141.15 267.102 140.572 266.994 140.01L267.445 139.514Z" fill="#5E5E5E" stroke="#263238" stroke-linecap="round" stroke-linejoin="round"/>
<path d="M268.737 142.441C268.737 143.209 268.509 143.959 268.083 144.597C267.656 145.236 267.05 145.733 266.341 146.027C265.632 146.321 264.851 146.398 264.098 146.248C263.345 146.098 262.654 145.728 262.111 145.186C261.568 144.643 261.198 143.951 261.048 143.198C260.899 142.445 260.976 141.665 261.269 140.955C261.563 140.246 262.061 139.64 262.699 139.213C263.337 138.787 264.088 138.559 264.855 138.559C265.885 138.559 266.872 138.968 267.6 139.696C268.328 140.424 268.737 141.411 268.737 142.441Z" fill="#263238" stroke="#263238" stroke-linecap="round" stroke-linejoin="round"/>
<path d="M272.02 143.777C271.815 143.417 271.555 143.091 271.25 142.81L271.155 142.695C270.428 142.074 269.503 141.733 268.546 141.735H252.797C251.73 141.735 250.707 142.158 249.953 142.912C249.199 143.667 248.775 144.69 248.775 145.756C248.776 146.79 249.175 147.783 249.889 148.531H249.838L256.545 155.937L278.352 150.719L272.02 143.777Z" fill="#5E5E5E" stroke="#263238" stroke-linecap="round" stroke-linejoin="round"/>
<path d="M275.845 157.974H260.121C259.054 157.974 258.031 157.55 257.277 156.796C256.523 156.042 256.099 155.019 256.099 153.952C256.099 152.885 256.523 151.863 257.277 151.108C258.031 150.354 259.054 149.93 260.121 149.93H275.845C276.909 149.935 277.928 150.362 278.678 151.117C279.428 151.872 279.849 152.894 279.847 153.958C279.845 155.021 279.424 156.039 278.674 156.791C277.924 157.544 276.907 157.969 275.845 157.974Z" fill="#263238" stroke="#263238" stroke-linecap="round" stroke-linejoin="round"/>
<path d="M281.616 154.907H259.434L261.407 160.073L259.434 171.139H281.616C283.716 171.056 285.702 170.164 287.158 168.649C288.614 167.134 289.427 165.114 289.427 163.013C289.427 160.912 288.614 158.893 287.158 157.378C285.702 155.863 283.716 154.971 281.616 154.887V154.907Z" fill="#263238" stroke="#263238" stroke-linecap="round" stroke-linejoin="round"/>
<path d="M259.434 154.907V171.139C261.534 171.056 263.519 170.164 264.975 168.649C266.431 167.134 267.245 165.114 267.245 163.013C267.245 160.912 266.431 158.893 264.975 157.378C263.519 155.863 261.534 154.971 259.434 154.887V154.907Z" fill="#5E5E5E" stroke="#263238" stroke-linecap="round" stroke-linejoin="round"/>
<path d="M267.566 173.048C267.566 173.048 259.434 174.155 253.268 178.839C247.102 183.522 245.874 188.085 245.384 190.668C245.071 192.461 244.905 194.276 244.887 196.096V238.488H253.268V195.078C253.268 195.078 252.53 189.408 255.737 184.725C258.944 180.041 267.566 178.069 267.566 178.069V173.048Z" fill="#263238" stroke="#263238" stroke-linecap="round" stroke-linejoin="round"/>
<path d="M260.293 173.048C260.293 173.048 252.161 174.155 246.001 178.839C239.842 183.522 238.607 188.085 238.111 190.668C237.802 192.461 237.638 194.276 237.621 196.096V238.488H246.001V195.078C246.001 195.078 245.263 189.408 248.464 184.725C251.665 180.041 260.293 178.069 260.293 178.069V173.048Z" fill="white" stroke="#263238" stroke-linecap="round" stroke-linejoin="round"/>
<path d="M246.923 222.258C247.464 218.939 245.211 215.81 241.891 215.269C238.572 214.728 235.443 216.981 234.902 220.301C234.361 223.62 236.614 226.749 239.934 227.29C243.253 227.831 246.382 225.578 246.923 222.258Z" fill="#263238" stroke="#263238" stroke-linecap="round" stroke-linejoin="round"/>
<path d="M268.89 193.353H266.427V194.957H268.89V193.353Z" fill="#263238" stroke="#263238" stroke-linecap="round" stroke-linejoin="round"/>
<path d="M270.557 178.807H264.767V193.595H270.557V178.807Z" fill="#263238" stroke="#263238" stroke-linecap="round" stroke-linejoin="round"/>
<path d="M284.537 191.324L282.261 192.266L282.875 193.748L285.15 192.806L284.537 191.324Z" fill="#263238" stroke="#263238" stroke-linecap="round" stroke-linejoin="round"/>
<path d="M280.513 177.256L275.163 179.471L280.82 193.135L286.17 190.92L280.513 177.256Z" fill="#263238" stroke="#263238" stroke-linecap="round" stroke-linejoin="round"/>
<path d="M282.851 171.158H259.434V180.901H282.851V171.158Z" fill="#5E5E5E" stroke="#263238" stroke-linecap="round" stroke-linejoin="round"/>
<path d="M282.851 171.158H264.531V180.901H282.851V171.158Z" fill="#263238" stroke="#263238" stroke-linecap="round" stroke-linejoin="round"/>
<path d="M278.04 217.566H277.117V209.618H274.903V217.566H274.158V222.561H274.903V235.682H277.117V222.561H278.04V217.566Z" fill="#263238" stroke="#263238" stroke-linecap="round" stroke-linejoin="round"/>
<path d="M294.928 260.27H252.899V244.018C252.899 241.655 253.838 239.389 255.508 237.719C257.179 236.048 259.445 235.109 261.808 235.109H269.8C276.468 235.109 282.862 237.758 287.577 242.473C292.292 247.188 294.941 253.583 294.941 260.251L294.928 260.27Z" fill="#263238" stroke="#263238" stroke-linecap="round" stroke-linejoin="round"/>
<path d="M283.341 260.27H241.343V244.018C241.343 241.655 242.282 239.389 243.952 237.719C245.623 236.048 247.889 235.109 250.252 235.109H258.212C264.88 235.109 271.275 237.758 275.99 242.473C280.705 247.188 283.353 253.583 283.353 260.251L283.341 260.27Z" fill="#5E5E5E" stroke="#263238" stroke-linecap="round" stroke-linejoin="round"/>
<path d="M272.739 208.753H255.489V236.357H272.739V208.753Z" fill="#263238" stroke="#263238" stroke-linecap="round" stroke-linejoin="round"/>
<path d="M272.739 217.769H255.489V227.352H272.739V217.769Z" fill="#5E5E5E" stroke="#263238" stroke-linecap="round" stroke-linejoin="round"/>
<path d="M278.537 260.27H236.507V244.018C236.507 241.655 237.446 239.389 239.116 237.719C240.787 236.048 243.053 235.109 245.416 235.109H253.408C260.076 235.109 266.471 237.758 271.186 242.473C275.9 247.188 278.549 253.583 278.549 260.251L278.537 260.27Z" fill="#263238" stroke="#263238" stroke-linecap="round" stroke-linejoin="round"/>
<path d="M229.056 266.436C228.896 266.436 228.741 266.376 228.623 266.268C228.505 266.159 228.432 266.01 228.419 265.85L227.898 261.008H230.214L229.692 265.85C229.679 266.01 229.607 266.159 229.489 266.268C229.371 266.376 229.216 266.436 229.056 266.436Z" fill="#263238" stroke="#263238" stroke-linecap="round" stroke-linejoin="round"/>
<path d="M256.303 266.436C256.143 266.436 255.988 266.376 255.871 266.268C255.753 266.159 255.68 266.01 255.667 265.85L255.145 261.008H257.487L256.965 265.85C256.952 266.015 256.876 266.167 256.752 266.277C256.629 266.386 256.468 266.443 256.303 266.436Z" fill="#263238" stroke="#263238" stroke-linecap="round" stroke-linejoin="round"/>
<path d="M266.427 266.436C266.267 266.436 266.112 266.376 265.994 266.268C265.876 266.159 265.804 266.01 265.791 265.85L265.269 261.008H267.611L267.089 265.85C267.076 266.015 267 266.167 266.876 266.277C266.753 266.386 266.592 266.443 266.427 266.436Z" fill="#263238" stroke="#263238" stroke-linecap="round" stroke-linejoin="round"/>
<path d="M294.031 266.436C293.871 266.436 293.716 266.376 293.598 266.268C293.48 266.159 293.407 266.01 293.395 265.85L292.873 261.008H295.214L294.693 265.85C294.68 266.015 294.603 266.167 294.48 266.277C294.357 266.386 294.196 266.443 294.031 266.436Z" fill="#263238" stroke="#263238" stroke-linecap="round" stroke-linejoin="round"/>
<path d="M266.949 260.27H224.951V244.018C224.951 241.655 225.89 239.389 227.56 237.719C229.231 236.048 231.497 235.109 233.86 235.109H241.852C248.52 235.109 254.915 237.758 259.63 242.473C264.345 247.188 266.993 253.583 266.993 260.251L266.949 260.27Z" fill="#5E5E5E" stroke="#263238" stroke-linecap="round" stroke-linejoin="round"/>
<path d="M296.596 259.162H223.876C223.163 259.162 222.584 259.741 222.584 260.454V260.461C222.584 261.174 223.163 261.752 223.876 261.752H296.596C297.309 261.752 297.887 261.174 297.887 260.461V260.454C297.887 259.741 297.309 259.162 296.596 259.162Z" fill="white" stroke="#263238" stroke-linecap="round" stroke-linejoin="round"/>
<path d="M298.619 206.042H244.518V210.604H298.619V206.042Z" fill="white" stroke="#263238" stroke-linecap="round" stroke-linejoin="round"/>
<path d="M298.626 206.042H263.112V210.604H298.626V206.042Z" fill="#263238" stroke="#263238" stroke-linecap="round" stroke-linejoin="round"/>
<rect x="0.5" y="0.509155" width="319" height="590.793" rx="4.5" stroke="#9747FF" stroke-dasharray="10 5"/>
</svg>
